<?xml version="1.0" encoding="utf-8"?>
<!-- Generator: Adobe Illustrator 26.5.0, SVG Export Plug-In . SVG Version: 6.00 Build 0)  -->
<svg version="1.1" id="Layer_1" xmlns="http://www.w3.org/2000/svg" xmlns:xlink="http://www.w3.org/1999/xlink" x="0px" y="0px"
	 viewBox="0 0 1000 1000" enable-background="new 0 0 1000 1000" xml:space="preserve">
<g>
	<path fill="#C5A8D0" d="M283.9,967.98L283.9,967.98c-51.25,0-92.79-41.55-92.79-92.79V124.81c0-51.25,41.55-92.79,92.79-92.79h0
		c51.25,0,92.79,41.55,92.79,92.79v750.38C376.69,926.44,335.15,967.98,283.9,967.98z"/>
	<path fill="#AFD89F" d="M514.98,349.49l-116.25,86.14c-31.94,23.67-77.02,16.96-100.68-14.98l0,0
		c-23.67-31.94-16.96-77.02,14.98-100.68l116.25-86.14c31.94-23.67,77.02-16.96,100.68,14.98l0,0
		C553.63,280.74,546.92,325.82,514.98,349.49z"/>
	<path fill="#F9CC8D" d="M523.88,820.69L523.88,820.69c-44.77,0-81.07-36.3-81.07-81.07V219.36c0-44.77,36.3-81.07,81.07-81.07h0
		c44.77,0,81.07,36.3,81.07,81.07v520.26C604.95,784.39,568.65,820.69,523.88,820.69z"/>
	<path fill="#BFE2E8" d="M562.93,494.96L731.99,357.1c29.53-24.08,72.98-19.66,97.06,9.86l0,0c24.08,29.53,19.66,72.98-9.86,97.06
		L650.13,601.89c-29.53,24.08-72.98,19.66-97.06-9.86l0,0C528.99,562.5,533.41,519.04,562.93,494.96z"/>
	<path fill="#FAC1BA" d="M731.2,702.35L731.2,702.35c39.42,0,71.37-31.95,71.37-71.37V341.16c0-39.42-31.95-71.37-71.37-71.37h0
		c-39.42,0-71.37,31.95-71.37,71.37v289.82C659.83,670.4,691.78,702.35,731.2,702.35z"/>
</g>
</svg>
